<svg width="84" height="33" viewBox="0 0 84 33" fill="none" xmlns="http://www.w3.org/2000/svg">
<path d="M15.0814 12.1978C14.963 12.4871 15.0178 12.8288 15.2124 13.0152L19.3334 16.9612C19.8528 17.4585 19.8476 18.4611 19.3226 19.0318L7.94799 31.3967C7.49798 31.8859 6.87635 31.2871 7.14762 30.6258L11.2454 20.635C11.3641 20.3456 11.3094 20.0036 11.1146 19.817L6.99992 15.8772C6.48019 15.3795 6.48586 14.3761 7.01161 13.8056L18.3366 1.5174C18.7866 1.02922 19.4074 1.6272 19.1369 2.2882L15.0814 12.1978Z" fill="#22272B"/>
<path d="M45.1488 5V16H41.3356V11.9457H37.8132V16H34V5H37.8132V8.89714H41.3356V5H45.1488Z" fill="#22272B"/>
<path d="M54.6934 14.0829H50.3954L49.636 16H45.7582L50.7024 5H54.451L59.3953 16H55.4528L54.6934 14.0829ZM53.6431 11.4114L52.5444 8.64571L51.4457 11.4114H53.6431Z" fill="#22272B"/>
<path d="M64.8512 13.2343H63.8171V16H60.0039V5H65.449C66.4939 5 67.4041 5.16762 68.1797 5.50286C68.9552 5.8381 69.5531 6.32 69.9732 6.94857C70.3933 7.57714 70.6033 8.31048 70.6033 9.14857C70.6033 9.93429 70.4202 10.6205 70.054 11.2071C69.6877 11.7938 69.1599 12.26 68.4705 12.6057L70.8457 16H66.774L64.8512 13.2343ZM66.7578 9.14857C66.7578 8.74 66.6285 8.42571 66.37 8.20571C66.1115 7.97524 65.7237 7.86 65.2067 7.86H63.8171V10.4371H65.2067C65.7237 10.4371 66.1115 10.3271 66.37 10.1071C66.6285 9.87667 66.7578 9.55714 66.7578 9.14857Z" fill="#22272B"/>
<path d="M72.0433 5H77.6177C78.878 5 79.9875 5.22524 80.9462 5.67571C81.9157 6.11571 82.6643 6.74952 83.1921 7.57714C83.7307 8.40476 84 9.37905 84 10.5C84 11.621 83.7307 12.5952 83.1921 13.4229C82.6643 14.2505 81.9157 14.8895 80.9462 15.34C79.9875 15.78 78.878 16 77.6177 16H72.0433V5ZM77.4561 13.1086C78.2748 13.1086 78.9265 12.8833 79.4112 12.4329C79.9067 11.9719 80.1545 11.3276 80.1545 10.5C80.1545 9.67238 79.9067 9.03333 79.4112 8.58286C78.9265 8.1219 78.2748 7.89143 77.4561 7.89143H75.8565V13.1086H77.4561Z" fill="#22272B"/>
<path d="M44.9891 21.0563L42.4307 28.9437H41.8478L39.5053 21.8676L37.1521 28.9437H36.5692L34 21.0563H34.5829L36.8822 28.1549L39.2463 21.0563H39.7752L42.1285 28.1662L44.4494 21.0563H44.9891Z" fill="#22272B"/>
<path d="M49.7083 29C48.967 29 48.2978 28.8272 47.7005 28.4817C47.1031 28.1286 46.6318 27.6479 46.2863 27.0394C45.9481 26.431 45.779 25.7512 45.779 25C45.779 24.2488 45.9481 23.569 46.2863 22.9606C46.6318 22.3521 47.1031 21.8751 47.7005 21.5296C48.2978 21.1765 48.967 21 49.7083 21C50.4495 21 51.1188 21.1728 51.7161 21.5183C52.3134 21.8638 52.7812 22.3408 53.1194 22.9493C53.4649 23.5577 53.6376 24.2413 53.6376 25C53.6376 25.7587 53.4649 26.4423 53.1194 27.0507C52.7812 27.6592 52.3134 28.1361 51.7161 28.4817C51.1188 28.8272 50.4495 29 49.7083 29ZM49.7083 28.4704C50.3416 28.4704 50.9137 28.3202 51.4247 28.0197C51.9356 27.7192 52.3386 27.3061 52.6337 26.7803C52.9287 26.2469 53.0763 25.6535 53.0763 25C53.0763 24.3465 52.9287 23.7568 52.6337 23.231C52.3386 22.6977 51.9356 22.2808 51.4247 21.9803C50.9137 21.6798 50.3416 21.5296 49.7083 21.5296C49.075 21.5296 48.4993 21.6798 47.9811 21.9803C47.4702 22.2808 47.0672 22.6977 46.7721 23.231C46.477 23.7568 46.3295 24.3465 46.3295 25C46.3295 25.6535 46.477 26.2469 46.7721 26.7803C47.0672 27.3061 47.4702 27.7192 47.9811 28.0197C48.4993 28.3202 49.075 28.4704 49.7083 28.4704Z" fill="#22272B"/>
<path d="M60.7934 28.9437L58.9906 26.307C58.7244 26.3446 58.4797 26.3634 58.2566 26.3634H56.0976V28.9437H55.5471V21.0563H58.2566C59.2065 21.0563 59.9514 21.293 60.4911 21.7662C61.0309 22.2319 61.3007 22.8817 61.3007 23.7155C61.3007 24.339 61.146 24.8648 60.8365 25.293C60.5343 25.7136 60.0989 26.0103 59.5304 26.1831L61.4195 28.9437H60.7934ZM58.2566 25.8563C59.0626 25.8563 59.6779 25.6723 60.1025 25.3042C60.5271 24.9286 60.7394 24.3991 60.7394 23.7155C60.7394 23.0319 60.5271 22.5061 60.1025 22.138C59.6779 21.7624 59.0626 21.5746 58.2566 21.5746H56.0976V25.8563H58.2566Z" fill="#22272B"/>
<path d="M65.5617 25.0563L63.8669 26.8704V28.9437H63.3164V21.0563H63.8669V26.1268L68.5843 21.0563H69.2535L65.9287 24.6394L69.4802 28.9437H68.811L65.5617 25.0563Z" fill="#22272B"/>
<path d="M76.1204 28.4254V28.9437H70.9065V21.0563H75.9585V21.5746H71.457V24.6845H75.4835V25.1915H71.457V28.4254H76.1204Z" fill="#22272B"/>
<path d="M83.3739 28.9437L81.5712 26.307C81.3049 26.3446 81.0602 26.3634 80.8371 26.3634H78.6782V28.9437H78.1276V21.0563H80.8371C81.7871 21.0563 82.5319 21.293 83.0716 21.7662C83.6114 22.2319 83.8813 22.8817 83.8813 23.7155C83.8813 24.339 83.7265 24.8648 83.4171 25.293C83.1148 25.7136 82.6794 26.0103 82.1109 26.1831L84 28.9437H83.3739ZM80.8371 25.8563C81.6431 25.8563 82.2584 25.6723 82.683 25.3042C83.1076 24.9286 83.3199 24.3991 83.3199 23.7155C83.3199 23.0319 83.1076 22.5061 82.683 22.138C82.2584 21.7624 81.6431 21.5746 80.8371 21.5746H78.6782V25.8563H80.8371Z" fill="#22272B"/>
<circle cx="13" cy="16.5969" r="12.7" stroke="#22272B" stroke-width="0.6"/>
</svg>
